<svg xmlns="http://www.w3.org/2000/svg" xmlns:xlink="http://www.w3.org/1999/xlink" width="2500" zoomAndPan="magnify" viewBox="0 0 1874.88 749.999995" height="1000" preserveAspectRatio="xMidYMid meet" version="1.2"><g id="ac45c995ca"><path style=" stroke:none;fill-rule:evenodd;fill:#000000;fill-opacity:1;" d="M 797.875 6.652344 C 800.710938 9.082031 834.320312 38.21875 872.5625 71.402344 C 910.800781 104.585938 942.417969 131.742188 942.816406 131.746094 C 943.402344 131.753906 1084.9375 9.617188 1090.996094 3.871094 C 1092.46875 2.476562 1070.726562 2.238281 942.71875 2.238281 L 792.714844 2.238281 Z M 1217.027344 3.152344 C 1217.027344 4.976562 1220.734375 9.300781 1222.296875 9.300781 C 1223.175781 9.300781 1224.074219 9.722656 1224.289062 10.234375 C 1224.507812 10.75 1226.800781 12.453125 1229.390625 14.023438 C 1231.980469 15.59375 1234.632812 17.320312 1235.277344 17.863281 C 1236.320312 18.726562 1266.144531 38.636719 1270.964844 41.683594 C 1271.988281 42.328125 1273.386719 43.265625 1274.070312 43.761719 C 1298.4375 61.492188 1322.550781 79.289062 1323 79.878906 C 1323.324219 80.300781 1327.035156 83.246094 1331.242188 86.425781 C 1335.453125 89.601562 1339.160156 92.519531 1339.484375 92.902344 C 1339.808594 93.285156 1343.519531 96.199219 1347.726562 99.378906 C 1351.9375 102.554688 1355.644531 105.492188 1355.96875 105.90625 C 1356.292969 106.324219 1358.941406 108.476562 1361.855469 110.695312 C 1366.605469 114.308594 1371.523438 118.371094 1375.261719 121.765625 C 1375.984375 122.421875 1378.882812 124.761719 1381.699219 126.964844 C 1386.527344 130.738281 1394.105469 137.230469 1398.292969 141.179688 C 1399.324219 142.148438 1402.523438 144.796875 1405.402344 147.066406 C 1408.28125 149.332031 1412.832031 153.304688 1415.511719 155.894531 C 1418.191406 158.488281 1424.558594 164.316406 1429.660156 168.847656 C 1454.132812 190.59375 1493.460938 229.953125 1524.9375 264.195312 C 1531.414062 271.242188 1538.035156 278.398438 1539.65625 280.101562 C 1541.273438 281.804688 1544.527344 285.550781 1546.886719 288.429688 C 1549.242188 291.304688 1553.246094 295.890625 1555.785156 298.613281 C 1558.804688 301.886719 1561.753906 305.222656 1564.632812 308.621094 C 1566.960938 311.402344 1570.046875 315 1571.492188 316.621094 C 1572.9375 318.238281 1579.1875 325.65625 1585.386719 333.105469 C 1591.582031 340.550781 1596.957031 346.910156 1597.328125 347.234375 C 1597.695312 347.558594 1599.839844 350.1875 1602.089844 353.074219 C 1606.039062 358.140625 1606.179688 358.683594 1606.179688 368.472656 C 1606.179688 379.246094 1605.484375 380.875 1596.597656 390.800781 C 1595.152344 392.421875 1590.445312 398.25 1586.140625 403.753906 C 1577.542969 414.75 1575.199219 417.621094 1569.785156 423.796875 C 1567.785156 426.078125 1564.027344 430.527344 1561.4375 433.683594 C 1558.847656 436.835938 1555.402344 440.804688 1553.785156 442.496094 C 1552.164062 444.1875 1548.773438 447.953125 1546.253906 450.863281 C 1534.085938 464.882812 1511.042969 488.867188 1477.25 522.679688 C 1443.90625 556.039062 1431.636719 567.777344 1414.917969 582.308594 C 1412.046875 584.804688 1408.3125 588.175781 1406.621094 589.792969 C 1404.929688 591.414062 1400.164062 595.652344 1396.03125 599.214844 C 1391.496094 603.125 1386.96875 607.050781 1382.457031 610.988281 C 1375.023438 617.488281 1372.175781 619.84375 1365.386719 625.085938 C 1362.472656 627.335938 1359.824219 629.457031 1359.503906 629.800781 C 1358.578125 630.78125 1342.507812 643.554688 1333.875 650.171875 C 1329.578125 653.464844 1325.238281 656.84375 1324.234375 657.679688 C 1323.230469 658.519531 1318.4375 662.117188 1313.582031 665.675781 C 1308.722656 669.238281 1304.109375 672.695312 1303.328125 673.359375 C 1302.546875 674.027344 1301.351562 674.570312 1300.679688 674.570312 C 1300.003906 674.570312 1299.449219 675.066406 1299.449219 675.667969 C 1299.449219 676.273438 1298.523438 677.0625 1297.390625 677.421875 C 1296.257812 677.78125 1293.976562 679.273438 1292.324219 680.738281 C 1290.671875 682.203125 1288.476562 683.933594 1287.449219 684.578125 C 1286.421875 685.226562 1280.886719 688.9375 1275.152344 692.820312 C 1269.417969 696.707031 1264.195312 700.105469 1263.542969 700.375 C 1262.894531 700.644531 1258.390625 703.582031 1253.53125 706.902344 C 1248.671875 710.222656 1239.355469 716.222656 1232.828125 720.234375 C 1219.078125 728.679688 1215.617188 731.828125 1218.253906 733.5 C 1219.277344 734.144531 1272.246094 734.59375 1349.242188 734.605469 C 1469.695312 734.621094 1478.726562 734.484375 1481.707031 732.589844 C 1483.464844 731.46875 1485.167969 730.226562 1485.492188 729.824219 C 1485.816406 729.425781 1492.351562 724.378906 1500.019531 718.613281 C 1518.335938 704.839844 1522.003906 702.003906 1525.523438 698.90625 C 1527.144531 697.480469 1531.648438 693.835938 1535.535156 690.800781 C 1539.417969 687.765625 1544.257812 683.800781 1546.289062 681.988281 C 1548.621094 679.914062 1550.972656 677.867188 1553.351562 675.847656 C 1559.183594 670.933594 1572.949219 658.800781 1576.179688 655.730469 C 1577.882812 654.113281 1583.46875 649.078125 1588.597656 644.546875 C 1608.945312 626.566406 1641.3125 594.167969 1673.886719 559.183594 C 1683.457031 548.902344 1695.285156 535.675781 1697.605469 532.65625 C 1699.085938 530.730469 1700.648438 528.886719 1701.078125 528.566406 C 1701.507812 528.242188 1705.121094 524.003906 1709.105469 519.144531 C 1713.089844 514.289062 1718.191406 508.132812 1720.441406 505.46875 C 1722.691406 502.804688 1726.496094 498.035156 1728.898438 494.871094 C 1731.300781 491.707031 1734.476562 487.800781 1735.957031 486.1875 C 1737.4375 484.574219 1738.648438 482.890625 1738.648438 482.445312 C 1738.648438 482 1739.308594 480.933594 1740.117188 480.074219 C 1740.925781 479.214844 1744.105469 475.335938 1747.179688 471.453125 C 1750.253906 467.570312 1753.257812 463.800781 1753.855469 463.074219 C 1754.449219 462.351562 1757.335938 458.253906 1760.269531 453.96875 C 1763.203125 449.683594 1766.160156 445.507812 1766.84375 444.6875 C 1770.410156 440.414062 1778.679688 428.332031 1778.679688 427.398438 C 1778.679688 426.804688 1779.105469 426.144531 1779.625 425.929688 C 1780.800781 425.4375 1802.320312 392.566406 1806.46875 384.914062 C 1807.699219 382.648438 1809.046875 380.527344 1809.46875 380.203125 C 1809.886719 379.878906 1811.582031 377.070312 1813.234375 373.960938 C 1816.140625 368.492188 1816.210938 366.101562 1813.574219 362.710938 C 1812.890625 361.832031 1811.78125 360.160156 1811.105469 358.992188 C 1810.433594 357.824219 1806.96875 352.269531 1803.40625 346.644531 C 1799.847656 341.023438 1796.402344 335.542969 1795.753906 334.46875 C 1795.105469 333.394531 1789.808594 325.433594 1783.980469 316.777344 C 1778.152344 308.121094 1772.851562 300.175781 1772.203125 299.117188 C 1771.558594 298.058594 1770.757812 296.925781 1770.429688 296.605469 C 1770.097656 296.28125 1768.507812 294.03125 1766.894531 291.609375 C 1765.28125 289.183594 1763.566406 287.195312 1763.078125 287.191406 C 1762.59375 287.1875 1762.195312 286.628906 1762.195312 285.949219 C 1762.195312 285.269531 1758.089844 279.371094 1753.070312 272.835938 C 1748.050781 266.304688 1742.910156 259.574219 1741.644531 257.882812 C 1740.378906 256.1875 1736.367188 251.09375 1732.730469 246.5625 C 1729.089844 242.027344 1722.765625 234.082031 1718.671875 228.898438 C 1707.699219 215.019531 1685.996094 189.679688 1679.253906 182.878906 C 1677.273438 180.878906 1672.238281 175.316406 1668.0625 170.515625 C 1657.835938 158.75 1605.667969 106.6875 1590.285156 92.890625 C 1583.484375 86.792969 1577.347656 81.25 1576.644531 80.582031 C 1573.238281 77.328125 1558.382812 64.304688 1555.449219 61.996094 C 1553.621094 60.558594 1550.726562 58.050781 1549.019531 56.421875 C 1545.503906 53.074219 1542.792969 50.78125 1534.355469 44.035156 C 1531.117188 41.445312 1528.203125 39.039062 1527.878906 38.683594 C 1527.554688 38.328125 1523.847656 35.429688 1519.636719 32.238281 C 1515.429688 29.046875 1511.058594 25.589844 1509.925781 24.554688 C 1508.796875 23.519531 1501.578125 18.074219 1493.886719 12.453125 L 1479.90625 2.238281 L 1348.464844 2.238281 C 1276.175781 2.238281 1217.027344 2.648438 1217.027344 3.152344 M 374.550781 13.554688 C 368.074219 18.40625 361.714844 23.28125 360.421875 24.390625 C 359.125 25.496094 354.828125 28.886719 350.875 31.921875 C 343.703125 37.425781 338.964844 41.277344 335.253906 44.625 C 334.179688 45.597656 330.921875 48.230469 328.019531 50.480469 C 325.113281 52.730469 322.476562 54.882812 322.152344 55.261719 C 321.828125 55.640625 317.855469 59.035156 313.320312 62.8125 C 288.136719 83.78125 269.71875 100.933594 231.03125 139.453125 C 209.21875 161.167969 198.804688 172.070312 189.660156 182.769531 C 186.4375 186.539062 181.753906 191.839844 179.257812 194.542969 C 176.757812 197.25 172.78125 201.847656 170.425781 204.761719 C 168.066406 207.675781 165.84375 210.324219 165.480469 210.648438 C 165.121094 210.972656 161.757812 214.945312 158.007812 219.480469 C 154.261719 224.011719 150.316406 228.777344 149.246094 230.066406 C 146.238281 233.6875 134.949219 247.527344 133.382812 249.503906 C 128.195312 256.066406 122.476562 263.136719 121.953125 263.632812 C 119.769531 265.710938 113.742188 274.191406 113.742188 275.1875 C 113.742188 275.847656 113.292969 276.566406 112.75 276.78125 C 110.902344 277.511719 74.882812 328.503906 74.882812 330.386719 C 74.882812 330.722656 73.429688 332.933594 71.648438 335.296875 C 67.320312 341.03125 65.535156 343.875 64.703125 346.351562 C 64.324219 347.484375 63.605469 348.414062 63.109375 348.414062 C 62.613281 348.414062 61.894531 349.339844 61.515625 350.472656 C 61.136719 351.605469 60.144531 353.574219 59.316406 354.84375 C 54.492188 362.246094 52.511719 366.363281 52.511719 368.996094 C 52.511719 370.625 52.949219 371.960938 53.480469 371.960938 C 54.015625 371.960938 55.625 374.214844 57.058594 376.964844 C 60.160156 382.917969 62.273438 386.460938 63.195312 387.269531 C 63.566406 387.59375 64.234375 388.652344 64.679688 389.625 C 65.125 390.59375 66.414062 392.789062 67.539062 394.5 C 68.664062 396.210938 71.675781 400.980469 74.234375 405.097656 C 76.789062 409.214844 79.308594 412.761719 79.828125 412.976562 C 80.347656 413.191406 80.773438 413.910156 80.773438 414.574219 C 80.773438 415.234375 82.363281 417.785156 84.304688 420.238281 C 86.246094 422.691406 87.835938 425.027344 87.835938 425.429688 C 87.835938 426.097656 96.886719 439.125 99.425781 442.113281 C 100.019531 442.8125 101.847656 445.507812 103.488281 448.105469 C 105.125 450.703125 107.179688 453.585938 108.042969 454.507812 C 108.910156 455.429688 111.421875 458.824219 113.625 462.054688 C 115.828125 465.28125 118.214844 468.453125 118.925781 469.101562 C 119.980469 470.066406 124.152344 475.355469 132.84375 486.765625 C 133.335938 487.414062 135.46875 490.09375 137.578125 492.722656 C 139.863281 495.582031 142.125 498.460938 144.355469 501.363281 C 145.972656 503.484375 147.828125 505.839844 148.476562 506.601562 C 149.125 507.359375 153.089844 512.214844 157.285156 517.390625 C 161.480469 522.5625 165.457031 527.375 166.117188 528.078125 C 166.777344 528.78125 170.761719 533.277344 174.96875 538.074219 C 207.652344 575.292969 272.609375 640.59375 296.25 659.988281 C 298.515625 661.847656 300.898438 663.953125 301.546875 664.664062 C 303.296875 666.582031 322.007812 682.773438 327.964844 687.523438 C 330.8125 689.789062 333.714844 692.1875 334.417969 692.855469 C 340.4375 698.554688 382.707031 730.5625 387.847656 733.3125 C 390.667969 734.824219 647.925781 735.203125 650.289062 733.703125 C 652.433594 732.335938 648.824219 728.582031 640.308594 723.3125 C 636.230469 720.789062 631.460938 717.804688 629.710938 716.679688 C 627.960938 715.550781 625.734375 714.253906 624.761719 713.792969 C 623.789062 713.335938 622.464844 712.5 621.820312 711.945312 C 619.3125 709.796875 604.476562 700.476562 603.554688 700.476562 C 603.023438 700.476562 602.410156 700.078125 602.195312 699.59375 C 601.976562 699.105469 595.707031 694.574219 588.261719 689.515625 C 576.304688 681.398438 570.644531 677.484375 560.148438 670.070312 C 558.613281 668.984375 553.050781 664.710938 547.785156 660.570312 C 542.523438 656.433594 536.230469 651.726562 533.800781 650.113281 C 531.375 648.496094 529.386719 646.75 529.386719 646.234375 C 529.386719 645.71875 528.449219 644.996094 527.300781 644.632812 C 526.152344 644.265625 523.582031 642.507812 521.585938 640.722656 C 516.65625 636.316406 513.261719 633.507812 507.011719 628.679688 C 504.101562 626.429688 501.453125 624.292969 501.128906 623.929688 C 500.804688 623.566406 497.90625 621.167969 494.6875 618.601562 C 486.25 611.871094 483.546875 609.589844 480.074219 606.277344 C 478.378906 604.660156 473.015625 599.890625 468.160156 595.679688 C 457.699219 586.613281 459.421875 588.15625 445.660156 575.515625 C 439.578125 569.929688 432.746094 563.835938 430.480469 561.972656 C 424.710938 557.238281 361.980469 494.171875 346.179688 477.226562 C 324.503906 453.972656 321.671875 450.84375 308.417969 435.449219 C 293.078125 417.640625 294.246094 419.050781 277.347656 397.855469 C 269.867188 388.46875 263.113281 379.308594 262.335938 377.5 C 258.683594 368.980469 261.558594 358.015625 270.035156 348.136719 C 272.929688 344.742188 275.78125 341.3125 278.585938 337.84375 C 280.851562 335.023438 283.292969 332.121094 284.011719 331.398438 C 284.726562 330.671875 287.871094 326.917969 291 323.054688 C 294.125 319.191406 298.671875 313.914062 301.101562 311.320312 C 306.023438 306.074219 308.597656 303.136719 314.90625 295.550781 C 317.273438 292.703125 320.535156 288.984375 322.152344 287.28125 C 323.773438 285.578125 327.703125 281.285156 330.886719 277.738281 C 349.089844 257.460938 365.203125 240.675781 395.828125 210.097656 C 436.457031 169.523438 444.589844 161.75 461.683594 147.144531 C 468.804688 141.058594 474.898438 135.75 475.222656 135.351562 C 475.546875 134.949219 477.402344 133.402344 479.34375 131.914062 C 481.289062 130.429688 484.730469 127.515625 487 125.441406 C 489.265625 123.367188 493.769531 119.660156 497.007812 117.203125 C 500.246094 114.75 504.75 111.027344 507.015625 108.933594 C 509.28125 106.84375 520.675781 98.066406 532.332031 89.425781 C 543.988281 80.785156 553.703125 73.265625 553.917969 72.714844 C 554.132812 72.160156 554.78125 71.707031 555.355469 71.707031 C 555.929688 71.707031 562.4375 67.335938 569.816406 61.992188 C 577.195312 56.648438 584.4375 51.484375 585.90625 50.511719 C 587.378906 49.542969 591.691406 46.492188 595.488281 43.742188 C 599.289062 40.992188 602.667969 38.738281 603 38.738281 C 603.554688 38.738281 616.707031 29.554688 619.464844 27.242188 C 620.109375 26.699219 621.4375 25.878906 622.40625 25.417969 C 623.378906 24.960938 625.761719 23.523438 627.707031 22.226562 C 629.648438 20.929688 632.164062 19.550781 633.296875 19.160156 C 634.429688 18.765625 635.363281 18.109375 635.371094 17.699219 C 635.375 17.289062 639.078125 14.835938 643.601562 12.246094 C 648.121094 9.65625 651.648438 7.003906 651.441406 6.359375 C 651.1875 5.582031 605.699219 5.101562 518.691406 4.957031 L 386.324219 4.730469 Z M 1214.433594 50.535156 C 1202.367188 51.910156 1196.609375 53.539062 1188.363281 57.910156 C 1175.40625 64.777344 1172.285156 71.945312 1172.285156 94.816406 L 1172.285156 110.5625 L 1167.28125 110.628906 C 1156.15625 110.777344 1148.734375 116.796875 1148.734375 125.671875 C 1148.734375 129.132812 1149.738281 130.804688 1154.667969 135.554688 L 1160.597656 141.269531 L 1155.296875 143.613281 C 1149.730469 146.078125 1141.699219 148.117188 1125.367188 151.207031 C 1111.207031 153.890625 1103.757812 157.042969 1096.804688 163.292969 C 1090.4375 169.019531 1085.183594 178.234375 1085.164062 183.714844 C 1085.128906 193.519531 1085.910156 192.914062 1059.433594 203.597656 C 1046.054688 208.996094 1034.871094 213.605469 1034.582031 213.832031 C 1033.816406 214.441406 1038.28125 227.132812 1039.261719 227.132812 C 1039.71875 227.132812 1051.148438 222.613281 1064.664062 217.089844 L 1089.238281 207.046875 L 1093.109375 211.703125 C 1098.21875 217.855469 1102.550781 219.289062 1129.28125 223.695312 C 1154.964844 227.925781 1163.757812 230.363281 1171.246094 235.320312 C 1182.167969 242.554688 1182.511719 244.503906 1174.359375 252.914062 C 1156.070312 271.765625 1105.097656 302.203125 1072.761719 313.570312 C 1051.433594 321.066406 1044.160156 322.960938 986.246094 336.074219 C 952.261719 343.769531 912.445312 358.0625 887.335938 371.578125 C 872.59375 379.515625 862.207031 385.945312 837.292969 402.566406 C 809.53125 421.085938 795.710938 429.234375 777.402344 437.878906 C 726.042969 462.132812 683.703125 465.445312 644.234375 448.292969 C 618.058594 436.917969 592.816406 415.804688 581.6875 395.980469 C 570.640625 376.300781 570.171875 350.972656 580.414062 327.339844 C 599.484375 283.328125 653.816406 247.601562 741.605469 221.339844 C 780.785156 209.617188 829.539062 199.070312 862.316406 195.21875 C 868.953125 194.4375 874.386719 193.398438 874.386719 192.910156 C 874.386719 191.289062 854.117188 190.054688 830.230469 190.21875 C 764.089844 190.675781 691.699219 206.667969 637.816406 232.726562 C 586.34375 257.621094 548.746094 295.632812 534.464844 337.226562 C 525.097656 364.492188 524.761719 396.886719 533.550781 424.949219 C 554.375 491.4375 613.3125 536.691406 697.765625 551.035156 C 723.007812 555.324219 783.667969 555.363281 821.988281 551.113281 L 829.050781 550.332031 L 828.855469 544.65625 C 828.746094 541.535156 828.03125 536.375 827.265625 533.183594 C 825.59375 526.214844 826.292969 526.308594 805.367188 530.234375 C 742.882812 541.953125 676.050781 534.722656 629.324219 511.1875 C 587.210938 489.976562 558.9375 460.328125 542.027344 419.648438 C 536.222656 405.683594 537.589844 406.988281 545.722656 423.179688 C 576.460938 484.347656 633.71875 521.957031 708.890625 530.359375 C 728.496094 532.546875 758.371094 532.53125 780.105469 530.324219 C 798.121094 528.488281 823.761719 524.238281 825.210938 522.839844 C 825.6875 522.378906 827.109375 517.964844 828.371094 513.035156 C 832.507812 496.855469 837.828125 488.355469 851.160156 476.628906 L 859.667969 469.144531 L 850.460938 479.023438 C 831.957031 498.875 826.546875 515.539062 831.273438 538.140625 C 832.375 543.394531 832.582031 547.628906 831.914062 551.089844 C 831.367188 553.921875 830.898438 558.203125 830.871094 560.609375 C 830.796875 566.800781 836.214844 572.722656 844.097656 575.0625 C 853.699219 577.914062 854.367188 577.679688 854.367188 571.464844 C 854.367188 568.507812 854.914062 565.070312 855.582031 563.824219 C 857.140625 560.90625 862.777344 558 866.875 558 C 871.109375 558 879.265625 566.472656 882.050781 573.761719 L 884.125 579.195312 L 892.253906 579.195312 C 902.578125 579.195312 907.617188 581.664062 918.246094 591.925781 C 926.996094 600.375 927.371094 600.171875 924.871094 588.378906 C 921.203125 571.082031 911.210938 560.847656 896.328125 559.148438 L 889.105469 558.324219 L 896.523438 558.164062 C 904.8125 557.984375 909.273438 559.707031 915.296875 565.421875 C 918.644531 568.597656 919.839844 569.011719 924.910156 568.742188 C 931.152344 568.410156 935.28125 570.023438 941.410156 575.179688 C 943.457031 576.902344 945.453125 577.992188 945.84375 577.601562 C 946.898438 576.546875 942.773438 566.203125 939.585938 561.921875 C 938.058594 559.867188 933.757812 556.6875 930.03125 554.855469 C 923.757812 551.773438 922.21875 551.527344 909.429688 551.527344 C 894.421875 551.53125 895.378906 549.761719 910.589844 549.382812 C 915.285156 549.265625 919.128906 548.824219 919.128906 548.402344 C 919.128906 547.238281 912.144531 545.050781 908.433594 545.050781 C 906.628906 545.050781 901.445312 545.828125 896.914062 546.78125 C 891.128906 548 886.628906 548.230469 881.820312 547.5625 C 875.410156 546.671875 875.171875 546.527344 878.085938 545.320312 C 884.5625 542.628906 901.898438 512.371094 907.921875 493.242188 C 911.75 481.082031 913.121094 464.136719 910.917969 456.257812 C 908.730469 448.441406 902.714844 442.070312 894.667969 439.042969 C 886.242188 435.875 871.792969 435.613281 861.84375 438.449219 C 848.648438 442.210938 833.21875 451.632812 825.457031 460.667969 C 821.925781 464.777344 821.539062 465 823.0625 462.039062 C 827.0625 454.25 839.59375 443.613281 850.53125 438.714844 C 875.203125 427.664062 901.976562 431.589844 911.378906 447.636719 C 917.589844 458.230469 917.824219 474.726562 912.015625 491.617188 C 910.765625 495.253906 910.082031 498.777344 910.496094 499.449219 C 911.535156 501.128906 959.429688 499.660156 976.3125 497.429688 C 989.769531 495.65625 1007.074219 492.171875 1017.578125 489.125 L 1023.597656 487.382812 L 1024.351562 480.953125 C 1026.082031 466.234375 1035.628906 446.917969 1049.808594 429.457031 C 1063.050781 413.152344 1063.742188 412.058594 1066.9375 402.46875 C 1069.433594 394.976562 1071.214844 391.90625 1075.808594 387.1875 C 1096.535156 365.910156 1139.191406 367.929688 1163.167969 391.324219 C 1170.171875 398.15625 1172.730469 404.160156 1172.734375 413.761719 C 1172.738281 422.339844 1170.902344 427.59375 1166.054688 432.894531 C 1162.550781 436.726562 1161.746094 436.160156 1163.539062 431.128906 C 1169.234375 415.171875 1160.515625 400.417969 1139.132812 389.824219 C 1115.796875 378.261719 1090.53125 378.585938 1077.683594 390.613281 C 1073.964844 394.09375 1069.84375 401.394531 1069.84375 404.5 C 1069.84375 406.285156 1070.152344 406.238281 1072.496094 404.089844 C 1073.949219 402.75 1078.140625 399.761719 1081.800781 397.441406 C 1087.949219 393.550781 1087.296875 394.394531 1073.347656 408.363281 C 1044.019531 437.722656 1027.457031 465.832031 1027.457031 486.234375 C 1027.457031 494.589844 1031.433594 508.332031 1039.15625 526.648438 C 1043.015625 535.796875 1047.015625 546.726562 1048.046875 550.9375 C 1051.449219 564.828125 1054.351562 569.027344 1063.035156 572.65625 C 1069.101562 575.191406 1069.84375 575 1069.84375 570.894531 C 1069.84375 560.359375 1080.492188 553.746094 1089.746094 558.53125 C 1093.882812 560.671875 1096.289062 564.304688 1098.4375 571.664062 L 1100.117188 577.429688 L 1107.0625 577.042969 C 1113.671875 576.675781 1114.433594 576.9375 1122.890625 582.457031 C 1127.777344 585.648438 1134.085938 590.457031 1136.914062 593.144531 C 1139.742188 595.835938 1142.230469 598.035156 1142.449219 598.035156 C 1143.828125 598.035156 1142.378906 589.84375 1139.753906 582.753906 C 1135.933594 572.457031 1128.242188 563.480469 1119.910156 559.597656 C 1116.660156 558.085938 1112.941406 556.832031 1111.644531 556.816406 C 1110.351562 556.800781 1108.496094 556.222656 1107.523438 555.53125 C 1106.21875 554.601562 1107.273438 554.453125 1111.550781 554.964844 C 1118.28125 555.769531 1126.570312 560.25 1131.796875 565.914062 C 1135.398438 569.816406 1135.5625 569.867188 1140.742188 568.5625 C 1147.558594 566.84375 1154.359375 568.582031 1159.917969 573.460938 C 1165.585938 578.441406 1166.859375 577.351562 1163.597656 570.316406 C 1157.730469 557.664062 1143.507812 550.9375 1122.625 550.9375 C 1116.925781 550.9375 1113.167969 550.257812 1110.054688 548.671875 C 1105.332031 546.261719 1096.726562 538.296875 1091.636719 531.628906 L 1088.558594 527.589844 L 1090.652344 520.71875 C 1093.265625 512.144531 1093.617188 485.667969 1091.214844 478.789062 C 1088.871094 472.078125 1084.210938 467.3125 1076.347656 463.582031 C 1070.457031 460.785156 1069.957031 460.335938 1073.378906 460.933594 C 1078.652344 461.855469 1086.742188 465.667969 1090.96875 469.222656 C 1094.207031 471.949219 1094.386719 471.964844 1101.1875 470.21875 C 1116.109375 466.386719 1134.015625 455.664062 1142.792969 445.308594 C 1145.679688 441.902344 1145.398438 442.585938 1141.601562 448.199219 C 1138.863281 452.242188 1134.34375 457.421875 1131.554688 459.707031 C 1124.550781 465.449219 1110.84375 471.679688 1101.320312 473.460938 C 1094.957031 474.644531 1093.503906 475.304688 1094.113281 476.734375 C 1096.519531 482.367188 1098.125 492.65625 1097.890625 500.894531 C 1097.578125 511.820312 1096.1875 511.285156 1112.824219 506.65625 C 1135.289062 500.40625 1162.746094 488.136719 1188.570312 472.804688 C 1195.492188 468.695312 1207.4375 462.347656 1215.121094 458.695312 C 1222.800781 455.046875 1233.394531 449.171875 1238.65625 445.644531 C 1248.605469 438.976562 1260.59375 428.984375 1260.59375 427.363281 C 1260.59375 426.847656 1258.078125 426.910156 1255.003906 427.5 C 1240.128906 430.347656 1225.226562 422.992188 1214.441406 407.484375 C 1212.492188 404.675781 1207.039062 393.96875 1202.324219 383.683594 C 1197.609375 373.402344 1192.089844 362.714844 1190.058594 359.9375 C 1184.484375 352.308594 1171.484375 339.519531 1162.570312 332.898438 C 1155.484375 327.636719 1152.097656 324.425781 1156.09375 326.761719 C 1173.105469 336.703125 1191.492188 353.519531 1197.835938 364.9375 C 1199.828125 368.523438 1203.882812 377.382812 1206.847656 384.625 C 1215.203125 405.023438 1221.007812 412.632812 1232.851562 418.699219 C 1244.457031 424.648438 1257.597656 423.585938 1274.679688 415.328125 C 1287.570312 409.09375 1302.597656 394.515625 1309.066406 381.96875 C 1316.957031 366.660156 1321.597656 349.707031 1314.953125 360.460938 C 1310.929688 366.972656 1298.003906 378.425781 1290.878906 381.796875 C 1271.371094 391.027344 1259.8125 388.058594 1234.605469 367.34375 C 1227.355469 361.410156 1220.09375 355.492188 1212.820312 349.589844 C 1183.277344 325.59375 1172.132812 313.246094 1167.527344 299.398438 C 1164.066406 289.007812 1164.671875 277.488281 1169.136719 268.722656 C 1172.945312 261.238281 1174.941406 259.644531 1173.738281 265.046875 C 1173.261719 267.183594 1172.875 273.703125 1172.875 279.53125 C 1172.878906 289.011719 1173.277344 290.96875 1176.652344 298.097656 C 1183.832031 313.265625 1192.722656 322.726562 1217.617188 341.679688 C 1224.09375 346.613281 1234.691406 354.945312 1241.167969 360.195312 C 1247.644531 365.449219 1256.875 371.691406 1261.679688 374.074219 C 1269.457031 377.929688 1271.402344 378.402344 1279.34375 378.378906 C 1296.1875 378.332031 1305.476562 371.457031 1321.828125 346.941406 C 1345.917969 310.820312 1356.96875 279.179688 1355.644531 250.09375 C 1354.890625 233.476562 1351.761719 221.859375 1343.617188 205.40625 C 1336.605469 191.246094 1332.167969 184.914062 1317.476562 168.109375 C 1312.171875 162.039062 1305.519531 154.160156 1302.699219 150.597656 C 1299.875 147.035156 1294.796875 142.046875 1291.40625 139.515625 L 1285.25 134.90625 L 1289.441406 131.453125 C 1294.074219 127.632812 1298.277344 120.375 1298.269531 116.203125 C 1298.261719 112.171875 1294.171875 106.238281 1289.789062 103.898438 C 1287.183594 102.507812 1283.496094 101.863281 1278.550781 101.941406 C 1274.503906 102 1271.183594 101.714844 1271.171875 101.304688 C 1271.03125 96.507812 1267.195312 74.480469 1265.730469 70.046875 C 1262.902344 61.511719 1255.875 55.011719 1246.6875 52.433594 C 1237.507812 49.859375 1226.214844 49.195312 1214.4375 50.535156 M 1259.417969 144.1875 C 1253.914062 145.699219 1247.953125 146.964844 1246.171875 147 C 1242.574219 147.070312 1241.613281 149.421875 1245.183594 149.421875 C 1246.421875 149.421875 1250.792969 148.339844 1254.898438 147.023438 C 1259 145.703125 1266.335938 144.269531 1271.191406 143.839844 C 1278.117188 143.226562 1279.261719 142.886719 1276.492188 142.257812 C 1271.28125 141.078125 1270.347656 141.179688 1259.417969 144.1875 M 1183.054688 152.59375 C 1179.589844 154.230469 1172.964844 156.214844 1168.335938 156.996094 C 1160.050781 158.402344 1159.996094 158.433594 1164.632812 159.207031 C 1173.476562 160.679688 1177.570312 160.058594 1185.859375 155.976562 C 1197.570312 150.207031 1198.480469 149.4375 1193.480469 149.535156 C 1191.210938 149.582031 1186.519531 150.957031 1183.054688 152.59375 M 1205.253906 152.238281 C 1205.253906 155.375 1207.339844 156.644531 1210.945312 155.699219 C 1213.484375 155.035156 1215.117188 152.269531 1214.019531 150.492188 C 1213.65625 149.902344 1211.535156 149.421875 1209.304688 149.421875 C 1205.816406 149.421875 1205.253906 149.8125 1205.253906 152.238281 M 1221.117188 152.894531 C 1223.5625 157.617188 1223.390625 159.332031 1220.097656 163.164062 C 1217.84375 165.78125 1216.28125 166.441406 1212.324219 166.441406 C 1208.222656 166.441406 1206.78125 165.78125 1203.957031 162.621094 C 1200.234375 158.457031 1199.832031 156.484375 1201.90625 152.609375 C 1203.246094 150.105469 1203.226562 150.097656 1200.433594 152.136719 C 1198.875 153.277344 1194.578125 156.179688 1190.882812 158.585938 C 1187.1875 160.992188 1184.15625 163.226562 1184.140625 163.550781 C 1184.101562 164.453125 1198.121094 173.625 1203.964844 176.519531 C 1213.773438 181.382812 1227.535156 179.1875 1234.101562 171.71875 C 1235.691406 169.910156 1235.878906 169.273438 1234.691406 169.757812 C 1233.71875 170.15625 1229.507812 171.898438 1225.332031 173.632812 C 1219.207031 176.175781 1216.550781 176.660156 1211.570312 176.144531 C 1205.265625 175.496094 1196.769531 171.371094 1192.875 167.066406 C 1189.1875 162.988281 1192.0625 162.976562 1200.210938 167.035156 C 1209.289062 171.550781 1217.046875 172.15625 1224.683594 168.941406 C 1230.773438 166.375 1235.867188 161.457031 1235.867188 158.136719 C 1235.867188 154.070312 1229.519531 149.421875 1223.972656 149.421875 L 1219.324219 149.421875 Z M 1038.054688 155.886719 C 1038.054688 156.203125 1039.886719 158.867188 1042.125 161.800781 C 1044.367188 164.734375 1046.550781 169.011719 1046.980469 171.304688 C 1047.8125 175.742188 1047.148438 183.886719 1045.648438 187.554688 C 1044.980469 189.1875 1045.179688 189.628906 1046.402344 189.226562 C 1050.847656 187.757812 1052.515625 175.328125 1049.300781 167.632812 C 1046.996094 162.121094 1041.679688 155.308594 1039.679688 155.308594 C 1038.785156 155.308594 1038.054688 155.566406 1038.054688 155.886719 M 1037.761719 165.410156 C 1037.382812 165.789062 1038.078125 168.304688 1039.304688 171.003906 C 1040.53125 173.703125 1041.542969 177.238281 1041.554688 178.855469 C 1041.585938 183.207031 1037.578125 189.007812 1031.652344 193.183594 C 1028.773438 195.214844 1025.796875 198.375 1025.035156 200.210938 C 1023.363281 204.25 1024.527344 211.679688 1026.984375 212.621094 C 1029.570312 213.617188 1029.925781 212.667969 1028.433594 208.71875 C 1026.371094 203.257812 1027.996094 199.542969 1034.550781 194.730469 C 1041.644531 189.523438 1044.355469 184.808594 1044.355469 177.679688 C 1044.355469 170.351562 1040.324219 162.847656 1037.761719 165.410156 M 1116.355469 166.097656 C 1112.996094 167.960938 1108.6875 172.003906 1107.28125 174.613281 C 1106.621094 175.84375 1107.933594 174.992188 1110.199219 172.726562 C 1116.960938 165.964844 1122.703125 166.246094 1119.320312 173.171875 C 1118.144531 175.574219 1118.351562 175.503906 1120.996094 172.609375 C 1123.996094 169.316406 1124.980469 165.90625 1122.925781 165.90625 C 1122.332031 165.90625 1121.140625 165.652344 1120.277344 165.347656 C 1119.414062 165.042969 1117.648438 165.378906 1116.355469 166.097656 M 1032.980469 169.074219 C 1032.574219 169.730469 1032.863281 171.917969 1033.621094 173.933594 C 1035.585938 179.128906 1033.765625 183.25 1027.59375 187.59375 C 1021.128906 192.140625 1018.035156 197.769531 1018.035156 204.980469 C 1018.035156 211.359375 1020.019531 216.605469 1022.125 215.796875 C 1023.234375 215.371094 1023.167969 214.039062 1021.828125 209.972656 C 1020.261719 205.210938 1020.289062 204.195312 1022.113281 199.421875 C 1023.539062 195.683594 1025.636719 193.097656 1029.273438 190.597656 C 1035.933594 186.015625 1038.054688 182.863281 1038.054688 177.546875 C 1038.054688 173.097656 1034.332031 166.882812 1032.980469 169.074219 M 1301.863281 169.777344 C 1301.832031 170.289062 1302.792969 172.675781 1304 175.078125 C 1309.773438 186.585938 1314.695312 206.699219 1314.839844 219.402344 C 1314.957031 229.394531 1316.921875 233.566406 1317.03125 224.050781 C 1317.195312 209.683594 1311.914062 188.074219 1304.972656 174.722656 C 1303.289062 171.492188 1301.890625 169.265625 1301.863281 169.777344 M 1320.832031 180.625 C 1320.828125 181.269531 1321.539062 183.65625 1322.410156 185.921875 C 1323.285156 188.1875 1324.015625 189.25 1324.035156 188.277344 C 1324.054688 187.304688 1323.34375 184.921875 1322.453125 182.976562 C 1321.566406 181.035156 1320.835938 179.976562 1320.832031 180.625 M 1324.269531 192.496094 C 1324.328125 193.867188 1324.605469 194.144531 1324.980469 193.207031 C 1325.324219 192.359375 1325.28125 191.339844 1324.890625 190.949219 C 1324.5 190.558594 1324.21875 191.253906 1324.269531 192.496094 M 1224.09375 195.847656 C 1219.378906 197.578125 1214.667969 199.320312 1209.964844 201.078125 C 1205.507812 202.75 1200.367188 203.558594 1193.480469 203.675781 C 1184.113281 203.832031 1183.8125 203.914062 1188.769531 204.929688 C 1195.558594 206.324219 1201.570312 205.445312 1215.019531 201.09375 C 1226.074219 197.523438 1240.582031 195.328125 1240.570312 197.230469 C 1240.566406 197.808594 1237.257812 199.136719 1233.210938 200.179688 C 1229.167969 201.222656 1221.089844 203.832031 1215.261719 205.984375 C 1206.128906 209.351562 1203.203125 209.890625 1194.066406 209.863281 C 1188.238281 209.847656 1178.703125 208.941406 1172.875 207.851562 C 1167.042969 206.765625 1152.472656 205.375 1140.492188 204.769531 C 1128.511719 204.164062 1115.800781 202.898438 1112.246094 201.957031 C 1104.714844 199.96875 1100.117188 201.226562 1107.183594 203.34375 C 1115.148438 205.730469 1127.753906 207.070312 1142.457031 207.09375 C 1152.933594 207.109375 1160.765625 207.90625 1171.582031 210.058594 C 1194.59375 214.640625 1202.257812 214.207031 1222.503906 207.199219 C 1241.089844 200.761719 1249.242188 199.316406 1257.0625 201.066406 L 1262.359375 202.253906 L 1259.59375 199.988281 C 1255.929688 196.980469 1242.738281 192.976562 1236.628906 193.015625 C 1233.941406 193.035156 1228.300781 194.308594 1224.09375 195.847656 M 1291.585938 201.847656 C 1289.75 214.328125 1286.28125 223.269531 1280.050781 231.558594 C 1273.746094 239.941406 1266.785156 245.050781 1257.324219 248.238281 C 1245.261719 252.300781 1234.125 251.449219 1212.90625 244.835938 C 1203.597656 241.933594 1179.964844 235.375 1178.8125 235.375 C 1178.316406 235.375 1180.8125 238.421875 1184.355469 242.144531 C 1187.898438 245.871094 1192.832031 251.21875 1195.316406 254.027344 C 1209.21875 269.753906 1233.082031 280.121094 1255.394531 280.121094 C 1268.730469 280.121094 1281.503906 277 1291.828125 271.226562 C 1296.019531 268.882812 1299.449219 266.804688 1299.449219 266.605469 C 1299.449219 266.410156 1295.34375 268.019531 1290.324219 270.1875 C 1277.214844 275.84375 1268.628906 277.765625 1256.472656 277.765625 C 1243.042969 277.765625 1234.71875 275.671875 1220.5625 268.742188 C 1210.988281 264.054688 1207.886719 261.738281 1199.042969 252.683594 C 1193.359375 246.867188 1188.859375 241.96875 1189.035156 241.804688 C 1189.363281 241.503906 1194.738281 242.851562 1219.382812 249.414062 C 1241.527344 255.3125 1257.191406 254.085938 1270.546875 245.410156 C 1286.515625 235.035156 1294.265625 219.511719 1293.324219 199.773438 L 1292.976562 192.398438 Z M 1325.542969 197.695312 C 1325.542969 199.316406 1325.808594 199.976562 1326.136719 199.167969 C 1326.460938 198.359375 1326.460938 197.035156 1326.136719 196.222656 C 1325.808594 195.414062 1325.542969 196.078125 1325.542969 197.695312 M 1326.761719 206.527344 C 1326.785156 208.46875 1327.050781 209.121094 1327.347656 207.976562 C 1327.648438 206.832031 1327.628906 205.242188 1327.304688 204.445312 C 1326.984375 203.648438 1326.738281 204.585938 1326.761719 206.527344 M 1334.308594 215.125 C 1330.210938 235.207031 1318.925781 255.882812 1302.390625 273.59375 C 1298.183594 278.101562 1294.742188 281.984375 1294.742188 282.230469 C 1294.742188 282.472656 1296.980469 280.90625 1299.71875 278.746094 C 1307.707031 272.441406 1318.09375 261.296875 1323.105469 253.648438 C 1331.667969 240.574219 1337.875 220.371094 1336.914062 208.6875 C 1336.605469 204.933594 1336.164062 206.019531 1334.308594 215.125 M 1301.785156 213.296875 C 1301.773438 217.347656 1300.988281 224.328125 1300.035156 228.816406 C 1298.046875 238.214844 1298.441406 240.550781 1300.605469 232.183594 C 1302.242188 225.863281 1303.722656 205.9375 1302.558594 205.9375 C 1302.144531 205.9375 1301.796875 209.25 1301.785156 213.296875 M 1028.632812 216.671875 C 1028.632812 218.945312 1032.679688 229.488281 1033.550781 229.488281 C 1035.640625 229.488281 1035.730469 226.5625 1033.800781 221.195312 C 1032.644531 217.984375 1031.011719 215.359375 1030.167969 215.359375 C 1029.324219 215.359375 1028.632812 215.949219 1028.632812 216.671875 M 1022.746094 219.027344 C 1022.746094 222.148438 1026.960938 231.84375 1028.320312 231.84375 C 1030.304688 231.84375 1030.203125 230.316406 1027.769531 223.464844 C 1026.644531 220.300781 1025.054688 217.714844 1024.234375 217.714844 C 1023.417969 217.714844 1022.746094 218.304688 1022.746094 219.027344 M 1347.726562 242.515625 C 1347.726562 243.203125 1342.296875 249.15625 1335.660156 255.746094 C 1329.019531 262.335938 1325.707031 266.164062 1328.300781 264.257812 C 1343.328125 253.183594 1354.332031 241.261719 1349.523438 241.261719 C 1348.535156 241.261719 1347.726562 241.824219 1347.726562 242.515625 M 1195.261719 270.933594 C 1194.382812 281.753906 1195.488281 288.390625 1199.765625 298.03125 C 1202.507812 304.207031 1214.148438 319.753906 1219.417969 324.273438 C 1220.925781 325.570312 1219.273438 323.183594 1215.746094 318.976562 C 1207.074219 308.632812 1204.796875 304.695312 1201.097656 293.671875 C 1198.367188 285.539062 1198 282.765625 1198.359375 273.171875 C 1198.648438 265.5 1198.359375 261.9375 1197.417969 261.617188 C 1196.496094 261.308594 1195.796875 264.335938 1195.261719 270.933594 M 1206.429688 279.78125 C 1206.429688 280.425781 1208.265625 283.359375 1210.503906 286.292969 C 1224.484375 304.601562 1248.34375 315.425781 1274.722656 315.425781 C 1290.203125 315.425781 1301.890625 312.503906 1318.101562 304.582031 C 1327.808594 299.835938 1344.960938 287.558594 1343.675781 286.269531 C 1343.308594 285.902344 1341.816406 286.632812 1340.363281 287.886719 C 1332.824219 294.394531 1318.742188 301.855469 1306.515625 305.820312 C 1270.441406 317.515625 1228.878906 308 1210.417969 283.824219 C 1208.222656 280.953125 1206.429688 279.132812 1206.429688 279.78125 M 1124.941406 295.144531 C 1123.28125 296.917969 1121.125 299.960938 1120.152344 301.902344 C 1117.417969 307.355469 1113.394531 321.222656 1113.539062 324.691406 C 1113.636719 327.007812 1113.910156 326.597656 1114.613281 323.097656 C 1116.164062 315.382812 1120.390625 305.210938 1124.71875 298.777344 C 1129.320312 291.941406 1129.414062 290.359375 1124.941406 295.144531 M 1069.277344 325.15625 C 1059.722656 335.972656 1052.1875 354.714844 1050.457031 371.960938 C 1049.917969 377.308594 1050.285156 376.488281 1052.554688 367.25 C 1055.613281 354.792969 1060.207031 342.980469 1064.535156 336.441406 C 1071.460938 325.976562 1075.765625 318.976562 1075.269531 318.976562 C 1074.976562 318.976562 1072.28125 321.757812 1069.277344 325.15625 M 1003.394531 346.941406 C 997.78125 354.144531 991.535156 366.957031 988.90625 376.671875 C 987.328125 382.496094 986.859375 388.546875 986.9375 401.988281 C 987.035156 417.625 987.410156 420.851562 990.230469 430.148438 C 991.980469 435.925781 993.960938 441.488281 994.628906 442.511719 C 995.621094 444.035156 995.703125 443.945312 995.074219 442.019531 C 990.875 429.101562 990.367188 424.9375 990.414062 403.753906 C 990.460938 383.0625 990.628906 381.46875 993.792969 371.960938 C 997.125 361.933594 1001.617188 352.339844 1006.328125 345.175781 C 1010.042969 339.53125 1008.394531 340.523438 1003.394531 346.941406 M 1312.386719 343.640625 C 1305.632812 347.210938 1294.589844 348.808594 1281.421875 348.117188 C 1272.902344 347.667969 1270.28125 347.820312 1272.371094 348.644531 C 1273.988281 349.285156 1280.65625 350.09375 1287.1875 350.445312 C 1300.476562 351.160156 1307.886719 349.480469 1314.167969 344.328125 C 1318.386719 340.871094 1317.945312 340.699219 1312.386719 343.640625 M 937.664062 360.925781 C 926.21875 372.371094 919.953125 389.828125 919.972656 410.230469 C 919.988281 424.328125 922.367188 436.128906 928.0625 450.332031 C 933.421875 463.695312 935.550781 466.136719 931.039062 453.742188 C 918.726562 419.910156 921.417969 388.085938 938.730469 362.835938 C 941.507812 358.789062 943.628906 355.476562 943.445312 355.476562 C 943.261719 355.476562 940.660156 357.929688 937.664062 360.925781 M 881.894531 385.339844 C 876.097656 391.695312 865.988281 407.285156 867.664062 407.285156 C 867.9375 407.285156 870.179688 404.238281 872.636719 400.515625 C 875.097656 396.789062 880.019531 390.421875 883.570312 386.355469 C 892.160156 376.535156 890.71875 375.660156 881.894531 385.339844 M 567.4375 402.871094 C 562.109375 407.75 555.292969 417.121094 555.292969 419.5625 C 555.292969 420.234375 556.6875 418.675781 558.390625 416.09375 C 560.09375 413.515625 564.449219 408.359375 568.066406 404.636719 C 575.75 396.730469 575.351562 395.617188 567.4375 402.871094 M 822.214844 425.832031 C 817.25 430.851562 812.34375 436.28125 811.3125 437.898438 C 810.28125 439.519531 812.210938 437.929688 815.597656 434.367188 C 818.988281 430.804688 824.460938 425.390625 827.761719 422.328125 C 831.0625 419.269531 833.195312 416.753906 832.503906 416.738281 C 831.8125 416.71875 827.183594 420.8125 822.214844 425.832031 M 847.433594 423.277344 C 838.167969 425.769531 827.695312 431.078125 818.878906 437.75 C 801.730469 450.734375 794.324219 464.257812 792.695312 485.585938 C 792.074219 493.65625 792.097656 493.609375 793.792969 483.257812 C 796.039062 469.535156 800.714844 459.691406 809.289062 450.632812 C 825.558594 433.4375 848.964844 424.050781 876.601562 423.632812 C 884.527344 423.515625 885.023438 423.386719 880.863281 422.527344 C 873.398438 420.980469 854.378906 421.410156 847.433594 423.277344 M 1258.804688 433.269531 C 1246.484375 445.714844 1233.6875 454.132812 1220.324219 458.585938 C 1213.023438 461.015625 1211.171875 462.085938 1211.605469 463.621094 C 1211.910156 464.691406 1212.996094 468.957031 1214.023438 473.09375 C 1216.753906 484.113281 1219.632812 489.898438 1228.675781 502.53125 C 1233.128906 508.753906 1238.671875 517.632812 1240.984375 522.261719 C 1248.839844 537.964844 1252.789062 539.265625 1291.996094 539.09375 C 1322.464844 538.957031 1319.925781 538.597656 1332.894531 544.851562 C 1333.492188 545.140625 1333.644531 543.441406 1333.246094 540.976562 C 1332.3125 535.242188 1327.902344 529.589844 1321.363281 525.761719 C 1316.625 522.980469 1314.902344 522.675781 1303.953125 522.640625 C 1294.027344 522.613281 1292.230469 522.351562 1294.152344 521.210938 C 1295.449219 520.441406 1300.480469 519.832031 1305.339844 519.851562 C 1314.316406 519.894531 1321.320312 521.96875 1325.621094 525.863281 C 1327.195312 527.285156 1329.675781 527.707031 1335.261719 527.507812 C 1341.632812 527.277344 1343.871094 527.785156 1349.929688 530.84375 C 1353.863281 532.828125 1357.359375 534.453125 1357.703125 534.453125 C 1359.558594 534.453125 1357.867188 528.285156 1354.878906 524.160156 C 1350.929688 518.707031 1342.816406 514.316406 1331.242188 511.367188 C 1324.957031 509.765625 1321.0625 509.585938 1309.460938 510.375 C 1289.574219 511.726562 1284.246094 511.4375 1280.742188 508.820312 C 1275.964844 505.253906 1275.445312 500.527344 1277.621094 480.289062 L 1279.582031 462.039062 L 1276.644531 449.675781 C 1275.03125 442.875 1273.359375 434 1272.925781 429.953125 C 1272.457031 425.554688 1271.582031 422.59375 1270.757812 422.59375 C 1270 422.59375 1264.621094 427.398438 1258.804688 433.269531 M 615.121094 447.894531 C 609 452.386719 603.917969 460.066406 602.980469 466.242188 C 602.425781 469.886719 602.558594 469.769531 604.332031 465.011719 C 605.554688 461.726562 609.234375 456.742188 614.101562 451.765625 C 618.394531 447.378906 621.625 443.800781 621.273438 443.816406 C 620.925781 443.832031 618.15625 445.667969 615.121094 447.894531 M 778.988281 449.378906 C 769.929688 459.644531 763.546875 476.421875 763.859375 489.121094 C 763.972656 493.503906 764.050781 493.382812 765.035156 487.351562 C 767.269531 473.691406 773.746094 458.453125 781.679688 448.203125 C 786.476562 442.003906 784.875 442.703125 778.988281 449.378906 M 726.195312 471.160156 C 724.207031 474.632812 721.75 480.625 720.734375 484.472656 C 718.78125 491.867188 716.902344 510.820312 718.238281 509.59375 C 718.671875 509.195312 719.796875 503.898438 720.734375 497.820312 C 722.679688 485.226562 724.710938 478.058594 728.359375 470.910156 C 732.089844 463.597656 730.410156 463.792969 726.195312 471.160156 M 671.964844 472.871094 C 666.457031 479.535156 663.835938 485.773438 662.457031 495.476562 C 661.140625 504.761719 661.628906 508.589844 663.054688 500.15625 C 664.449219 491.902344 668.136719 482.445312 672.570312 475.761719 C 677.535156 468.273438 677.179688 466.5625 671.964844 472.871094 M 1014.503906 492.820312 C 1007.265625 495.148438 984.285156 499.886719 972.113281 501.566406 C 966.609375 502.324219 949.996094 503.09375 935.199219 503.273438 L 908.289062 503.601562 L 903.238281 512.460938 C 900.464844 517.332031 896.773438 523.179688 895.042969 525.449219 L 891.894531 529.574219 L 896.976562 530.238281 C 929.335938 534.46875 1025.1875 534.425781 1036.253906 530.179688 C 1037.625 529.65625 1037.382812 528.316406 1034.925781 522.871094 C 1031.105469 514.40625 1026.710938 502.347656 1025.089844 495.890625 C 1023.6875 490.304688 1022.976562 490.097656 1014.503906 492.820312 M 793.324219 497.949219 C 793.324219 499.570312 793.59375 500.234375 793.917969 499.421875 C 794.246094 498.613281 794.246094 497.289062 793.917969 496.480469 C 793.59375 495.667969 793.324219 496.332031 793.324219 497.949219 M 1293.941406 503.710938 C 1288 504.753906 1282.816406 505.929688 1282.429688 506.324219 C 1282.039062 506.722656 1284.066406 507.703125 1286.933594 508.503906 C 1291.078125 509.664062 1294.332031 509.667969 1302.789062 508.511719 C 1308.640625 507.710938 1314.523438 507.34375 1315.859375 507.691406 C 1319.628906 508.675781 1318.847656 505.363281 1314.816406 503.28125 C 1310.707031 501.15625 1308.246094 501.203125 1293.941406 503.710938 M 1111.125 541.980469 C 1105.738281 543.929688 1105.441406 545.558594 1110.128906 547.539062 C 1113.886719 549.125 1134.601562 549.929688 1134.605469 548.492188 C 1134.605469 547.46875 1129.644531 543.164062 1126.734375 541.664062 C 1123.4375 539.964844 1116.304688 540.109375 1111.125 541.980469 M 1078.320312 559.972656 C 1074.191406 562.007812 1071.023438 566.8125 1071.023438 571.039062 C 1071.023438 572.644531 1074.515625 577.175781 1080.425781 583.230469 C 1085.597656 588.53125 1091.144531 595.460938 1092.75 598.632812 L 1095.671875 604.398438 L 1097.605469 599.769531 C 1099.066406 596.269531 1099.425781 592.550781 1099.066406 584.519531 C 1098.667969 575.613281 1098.054688 572.90625 1095.25 567.777344 C 1093.070312 563.78125 1090.570312 561.023438 1088.058594 559.828125 C 1083.34375 557.589844 1083.144531 557.59375 1078.320312 559.972656 M 860.152344 561.867188 C 857.148438 564.171875 855.546875 568.101562 855.546875 573.167969 C 855.546875 577.59375 855.957031 578.164062 862.097656 582.242188 C 867.808594 586.035156 872.5 590.722656 882.613281 602.746094 L 885.089844 605.6875 L 884.707031 593.820312 C 884.367188 583.230469 883.914062 581.117188 880.496094 574.171875 C 878.386719 569.890625 875.050781 565.03125 873.078125 563.375 C 869.195312 560.105469 863.335938 559.421875 860.152344 561.867188 M 867.683594 677.832031 L 793.277344 742.273438 L 867.980469 742.578125 C 909.0625 742.746094 976.359375 742.746094 1017.523438 742.578125 L 1092.363281 742.273438 L 1017.9375 677.808594 C 977 642.351562 943.1875 613.351562 942.796875 613.363281 C 942.410156 613.375 908.605469 642.386719 867.683594 677.832031 "/></g></svg>